<svg xmlns="http://www.w3.org/2000/svg" width="900" height="900" viewBox="0 0 900 900">
<rect width="100%" height="100%" fill="#070a10"/>
<style>.bed{fill:none;stroke:#24374e;stroke-width:35.6}
.rail{fill:none;stroke:#5aa0d0;stroke-width:1.2;stroke-dasharray:7 7}
.txt{fill:#9fc4e8;font:13px system-ui}</style>
<polyline class="bed" points="450,101.7 452.35,102.11 454.71,102.53 457.06,102.97 459.4,103.43 461.74,103.9 464.08,104.4 466.42,104.9 468.75,105.42 471.08,105.96 473.4,106.52 475.72,107.09 478.04,107.68 480.35,108.28 482.66,108.9 484.96,109.54 487.26,110.2 489.56,110.87 491.85,111.55 494.13,112.25 496.41,112.97 498.68,113.71 500.95,114.46 503.22,115.22 505.47,116.01 507.73,116.81 509.97,117.62 512.21,118.45 514.45,119.3 516.67,120.17 518.9,121.05 521.11,121.94 523.32,122.85 525.52,123.78 527.72,124.72 529.91,125.68 532.09,126.66 534.26,127.65 536.43,128.66 538.59,129.68 540.74,130.72 542.89,131.77 545.03,132.84 547.16,133.93 549.28,135.03 551.39,136.15 553.49,137.28 555.59,138.43 557.68,139.59 559.76,140.77 561.83,141.96 563.89,143.17 565.94,144.4 567.98,145.64 570.02,146.89 572.04,148.16 574.06,149.44 576.06,150.74 578.06,152.06 580.05,153.39 582.02,154.73 583.99,156.09 585.94,157.47 587.89,158.86 589.82,160.26 591.75,161.68 593.66,163.11 595.56,164.56 597.45,166.02 599.33,167.49 601.2,168.98 603.06,170.49 604.9,172.01 606.74,173.54 608.56,175.08 610.37,176.64 612.17,178.22 613.96,179.8 615.73,181.41 617.49,183.02 619.24,184.65 620.98,186.29 622.7,187.95 624.41,189.61 626.11,191.3 627.8,192.99 629.47,194.7 631.13,196.42 632.77,198.15 634.4,199.9 636.02,201.66 637.62,203.43 639.21,205.21 640.79,207.01 642.35,208.82 643.9,210.64 645.43,212.48 646.95,214.32 648.45,216.18 649.94,218.05 651.42,219.93 652.87,221.82 654.32,223.73 655.75,225.64 657.16,227.57 658.56,229.51 659.94,231.46 661.31,233.42 662.66,235.39 663.99,237.37 665.31,239.36 666.61,241.37 667.9,243.38 669.17,245.41 670.43,247.44 671.66,249.49 672.88,251.54 674.09,253.61 675.27,255.68 676.44,257.76 677.6,259.86 678.73,261.96 679.85,264.07 680.95,266.19 682.03,268.32 683.1,270.46 684.15,272.61 685.18,274.77 686.19,276.93 687.18,279.11 688.16,281.29 689.12,283.48 690.05,285.67 690.98,287.88 691.88,290.09 692.76,292.31 693.63,294.54 694.47,296.78 695.3,299.02 696.11,301.27 696.9,303.52 697.67,305.79 698.42,308.05 699.15,310.33 699.86,312.61 700.55,314.9 701.23,317.19 701.88,319.49 702.51,321.8 703.13,324.1 703.72,326.42 704.29,328.74 704.85,331.06 705.38,333.39 705.89,335.73 706.39,338.07 706.86,340.41 707.31,342.76 707.74,345.11 708.15,347.46 708.54,349.82 708.91,352.18 709.26,354.54 709.59,356.91 709.9,359.28 710.18,361.65 710.45,364.03 710.69,366.41 710.91,368.79 711.11,371.17 711.29,373.55 711.45,375.94 711.59,378.32 711.7,380.71 711.8,383.1 711.87,385.49 711.92,387.88 711.95,390.26 711.96,392.65 711.94,395.04 711.91,397.43 711.85,399.82 711.77,402.21 711.66,404.6 711.54,406.99 711.39,409.37 711.23,411.76 711.04,414.14 710.82,416.52 710.59,418.9 710.33,421.27 710.06,423.65 709.76,426.02 709.43,428.39 709.09,430.75 708.72,433.11 708.33,435.47 707.92,437.82 707.48,440.17 707.03,442.52 706.55,444.86 706.05,447.2 705.52,449.53 704.98,451.86 704.41,454.18 703.82,456.49 703.21,458.8 702.57,461.11 701.92,463.41 701.24,465.7 700.53,467.98 699.81,470.26 699.06,472.53 698.3,474.79 697.51,477.05 696.69,479.29 695.86,481.53 695,483.77 694.12,485.99 693.22,488.2 692.3,490.41 691.35,492.6 690.39,494.79 689.4,496.96 688.39,499.13 687.36,501.28 686.3,503.43 685.23,505.56 684.13,507.69 683.01,509.8 681.87,511.9 680.71,513.99 679.53,516.06 678.32,518.13 677.1,520.18 675.85,522.22 674.58,524.24 673.29,526.26 671.98,528.26 670.65,530.24 669.3,532.21 667.93,534.17 666.54,536.11 665.13,538.04 663.69,539.95 662.24,541.85 660.77,543.73 659.28,545.6 657.76,547.45 656.23,549.28 654.68,551.1 653.11,552.9 651.52,554.68 649.91,556.45 648.28,558.2 646.63,559.93 644.96,561.64 643.28,563.34 641.57,565.01 639.85,566.67 638.11,568.31 636.35,569.92 634.57,571.52 632.78,573.1 630.97,574.66 629.14,576.2 627.29,577.71 625.43,579.21 623.55,580.69 621.65,582.14 619.74,583.57 617.81,584.98 615.86,586.37 613.9,587.74 611.92,589.08 609.93,590.4 607.92,591.69 605.9,592.97 603.87,594.22 601.81,595.44 599.75,596.64 597.67,597.82 595.57,598.97 593.47,600.1 591.35,601.2 589.21,602.28 587.07,603.33 584.91,604.36 582.74,605.36 580.55,606.33 578.36,607.28 576.15,608.2 573.94,609.09 571.71,609.95 569.47,610.79 567.22,611.6 564.96,612.38 562.7,613.14 560.42,613.86 558.13,614.56 555.84,615.23 553.54,615.87 551.23,616.48 548.91,617.06 546.58,617.61 544.25,618.13 541.91,618.62 539.57,619.08 537.21,619.51 534.86,619.91 532.5,620.28 530.13,620.61 527.76,620.92 525.39,621.2 523.01,621.44 520.63,621.65 518.25,621.83 515.86,621.98 513.47,622.09 511.08,622.18 508.7,622.23 506.31,622.24 503.92,622.23 501.53,622.18 499.14,622.1 496.75,621.99 494.37,621.84 491.98,621.66 489.6,621.44 487.23,621.19 484.85,620.91 482.48,620.59 480.12,620.24 477.76,619.86 475.41,619.44 473.06,618.99 470.72,618.5 468.39,617.98 466.07,617.42 463.75,616.83 461.44,616.2 459.15,615.54 456.86,614.85 454.58,614.12 452.32,613.35 450.07,612.56 447.83,611.72 445.6,610.85 443.39,609.95 441.19,609.01 439.01,608.04 436.84,607.04 434.69,606 432.55,604.92 430.44,603.81 428.34,602.67 426.26,601.49 424.2,600.28 422.16,599.03 420.14,597.75 418.14,596.44 416.17,595.09 414.22,593.71 412.29,592.3 410.39,590.86 408.51,589.38 406.66,587.87 404.83,586.32 403.03,584.75 401.26,583.14 399.52,581.51 397.81,579.84 396.13,578.14 394.48,576.41 392.87,574.65 391.28,572.86 389.73,571.04 388.22,569.19 386.74,567.32 385.29,565.41 383.88,563.48 382.51,561.52 381.18,559.54 379.89,557.53 378.64,555.49 377.43,553.43 376.26,551.35 375.13,549.24 374.05,547.11 373.01,544.96 372.02,542.78 371.07,540.59 370.17,538.38 369.32,536.14 368.52,533.89 367.76,531.62 367.06,529.34 366.41,527.04 365.81,524.73 365.26,522.4"/>
<polyline class="rail" points="453,84.14 455.46,84.56 457.93,85.01 460.4,85.47 462.87,85.96 465.34,86.45 467.8,86.97 470.26,87.5 472.71,88.05 475.16,88.62 477.61,89.2 480.05,89.81 482.49,90.43 484.92,91.06 487.35,91.72 489.77,92.39 492.19,93.07 494.61,93.78 497.02,94.5 499.43,95.24 501.83,96 504.22,96.77 506.61,97.56 508.99,98.37 511.37,99.2 513.75,100.04 516.11,100.9 518.47,101.77 520.83,102.67 523.17,103.58 525.52,104.5 527.85,105.45 530.18,106.41 532.5,107.39 534.81,108.38 537.12,109.39 539.42,110.42 541.71,111.47 544,112.53 546.28,113.61 548.55,114.7 550.81,115.81 553.06,116.94 555.31,118.09 557.54,119.25 559.77,120.43 561.99,121.62 564.2,122.83 566.41,124.06 568.6,125.3 570.78,126.56 572.96,127.84 575.13,129.13 577.28,130.44 579.43,131.76 581.57,133.1 583.69,134.46 585.81,135.83 587.92,137.22 590.01,138.62 592.1,140.04 594.18,141.48 596.24,142.93 598.3,144.39 600.34,145.88 602.37,147.38 604.39,148.89 606.4,150.42 608.4,151.96 610.38,153.52 612.36,155.09 614.32,156.68 616.27,158.29 618.21,159.91 620.14,161.54 622.05,163.19 623.95,164.85 625.84,166.53 627.72,168.23 629.58,169.93 631.43,171.65 633.27,173.39 635.09,175.14 636.9,176.91 638.7,178.69 640.48,180.48 642.25,182.29 644,184.11 645.74,185.94 647.47,187.79 649.18,189.65 650.88,191.53 652.56,193.41 654.23,195.32 655.88,197.23 657.52,199.16 659.14,201.1 660.75,203.06 662.35,205.02 663.92,207 665.48,209 667.03,211 668.56,213.02 670.07,215.05 671.57,217.09 673.05,219.14 674.52,221.21 675.96,223.29 677.4,225.38 678.81,227.48 680.21,229.59 681.59,231.72 682.96,233.85 684.3,236 685.63,238.16 686.94,240.33 688.24,242.5 689.52,244.69 690.77,246.9 692.02,249.11 693.24,251.33 694.44,253.56 695.63,255.8 696.8,258.05 697.95,260.31 699.08,262.59 700.19,264.87 701.29,267.16 702.36,269.46 703.42,271.76 704.45,274.08 705.47,276.41 706.47,278.74 707.45,281.08 708.4,283.44 709.34,285.79 710.26,288.16 711.16,290.54 712.04,292.92 712.9,295.31 713.74,297.71 714.56,300.12 715.36,302.53 716.14,304.95 716.89,307.38 717.63,309.81 718.35,312.25 719.04,314.69 719.71,317.15 720.37,319.6 721,322.07 721.61,324.54 722.2,327.01 722.77,329.49 723.31,331.98 723.84,334.47 724.34,336.96 724.82,339.46 725.28,341.97 725.72,344.48 726.13,346.99 726.53,349.5 726.9,352.02 727.25,354.55 727.58,357.07 727.88,359.6 728.16,362.14 728.42,364.67 728.66,367.21 728.87,369.75 729.07,372.29 729.23,374.84 729.38,377.38 729.5,379.93 729.6,382.48 729.68,385.03 729.73,387.58 729.77,390.13 729.77,392.68 729.76,395.23 729.72,397.79 729.66,400.34 729.57,402.89 729.46,405.44 729.33,407.99 729.17,410.54 728.99,413.09 728.79,415.64 728.56,418.18 728.31,420.73 728.04,423.27 727.74,425.81 727.42,428.34 727.07,430.88 726.7,433.41 726.31,435.93 725.89,438.46 725.45,440.98 724.99,443.49 724.5,446.01 723.99,448.51 723.45,451.02 722.89,453.51 722.31,456.01 721.7,458.49 721.06,460.98 720.41,463.45 719.73,465.92 719.02,468.39 718.29,470.84 717.54,473.29 716.76,475.74 715.96,478.17 715.14,480.6 714.29,483.02 713.42,485.44 712.52,487.84 711.6,490.24 710.66,492.62 709.69,495 708.7,497.37 707.68,499.73 706.65,502.08 705.58,504.41 704.5,506.74 703.39,509.06 702.25,511.37 701.1,513.66 699.92,515.95 698.71,518.22 697.49,520.48 696.24,522.73 694.96,524.96 693.67,527.18 692.35,529.39 691,531.59 689.64,533.77 688.25,535.94 686.84,538.1 685.4,540.24 683.95,542.36 682.47,544.47 680.97,546.57 679.44,548.65 677.9,550.71 676.33,552.76 674.74,554.79 673.13,556.8 671.5,558.8 669.84,560.78 668.16,562.74 666.47,564.69 664.75,566.62 663.01,568.53 661.25,570.42 659.46,572.29 657.66,574.14 655.84,575.97 653.99,577.78 652.13,579.58 650.24,581.35 648.34,583.1 646.42,584.83 644.47,586.54 642.51,588.23 640.53,589.9 638.53,591.54 636.51,593.17 634.47,594.77 632.41,596.34 630.33,597.9 628.24,599.43 626.13,600.93 624,602.42 621.85,603.87 619.69,605.31 617.51,606.72 615.31,608.1 613.09,609.46 610.86,610.79 608.61,612.1 606.35,613.38 604.07,614.63 601.78,615.86 599.47,617.06 597.15,618.23 594.81,619.38 592.46,620.5 590.09,621.59 587.71,622.65 585.32,623.68 582.91,624.68 580.49,625.66 578.06,626.6 575.61,627.52 573.16,628.4 570.69,629.26 568.21,630.08 565.72,630.87 563.22,631.63 560.71,632.37 558.19,633.07 555.66,633.73 553.12,634.37 550.58,634.97 548.02,635.54 545.46,636.08 542.88,636.58 540.31,637.06 537.72,637.49 535.13,637.9 532.53,638.27 529.93,638.61 527.32,638.91 524.7,639.18 522.09,639.41 519.47,639.61 516.84,639.77 514.21,639.9 511.58,639.99 508.95,640.04 506.32,640.06 503.68,640.04 501.04,639.99 498.41,639.9 495.77,639.78 493.14,639.61 490.5,639.41 487.87,639.17 485.24,638.9 482.62,638.59 480,638.24 477.38,637.85 474.77,637.42 472.16,636.96 469.56,636.45 466.96,635.91 464.37,635.33 461.79,634.72 459.22,634.06 456.65,633.36 454.1,632.63 451.55,631.86 449.02,631.04 446.49,630.19 443.98,629.3 441.49,628.37 439,627.4 436.53,626.4 434.07,625.35 431.63,624.26 429.21,623.14 426.8,621.97 424.41,620.77 422.04,619.52 419.68,618.24 417.35,616.92 415.04,615.56 412.75,614.16 410.48,612.72 408.23,611.24 406.01,609.73 403.81,608.17 401.64,606.58 399.49,604.95 397.37,603.28 395.27,601.57 393.21,599.83 391.18,598.05 389.17,596.23 387.2,594.37 385.26,592.48 383.35,590.55 381.48,588.58 379.64,586.58 377.83,584.54 376.07,582.47 374.34,580.36 372.65,578.22 371,576.05 369.39,573.84 367.82,571.59 366.29,569.32 364.81,567.01 363.37,564.67 361.98,562.3 360.63,559.9 359.33,557.48 358.08,555.02 356.88,552.53 355.73,550.02 354.64,547.47 353.59,544.91 352.61,542.31 351.67,539.7 350.79,537.05 349.97,534.39 349.21,531.71 348.51,529 347.88,526.29"/>
<polyline class="rail" points="447,119.26 449.25,119.65 451.48,120.06 453.71,120.47 455.93,120.91 458.15,121.36 460.37,121.82 462.58,122.3 464.79,122.8 467,123.31 469.2,123.83 471.4,124.38 473.59,124.93 475.78,125.51 477.97,126.09 480.15,126.7 482.33,127.32 484.5,127.95 486.67,128.6 488.83,129.27 490.99,129.95 493.14,130.64 495.29,131.35 497.44,132.08 499.57,132.82 501.71,133.58 503.83,134.35 505.95,135.14 508.07,135.94 510.18,136.76 512.28,137.59 514.37,138.44 516.46,139.3 518.55,140.18 520.63,141.07 522.7,141.98 524.76,142.9 526.82,143.84 528.87,144.79 530.91,145.76 532.94,146.74 534.97,147.73 536.99,148.75 539,149.77 541.01,150.81 543.01,151.87 545,152.94 546.98,154.02 548.95,155.12 550.91,156.24 552.87,157.36 554.82,158.51 556.76,159.66 558.69,160.83 560.61,162.02 562.52,163.22 564.42,164.43 566.32,165.66 568.2,166.9 570.08,168.16 571.94,169.43 573.8,170.71 575.64,172.01 577.48,173.32 579.3,174.64 581.12,175.98 582.93,177.33 584.72,178.7 586.5,180.08 588.28,181.47 590.04,182.87 591.79,184.29 593.53,185.72 595.26,187.17 596.98,188.63 598.69,190.1 600.38,191.58 602.07,193.08 603.74,194.59 605.4,196.11 607.05,197.64 608.69,199.19 610.31,200.75 611.92,202.32 613.52,203.91 615.11,205.5 616.69,207.11 618.25,208.73 619.8,210.37 621.33,212.01 622.86,213.67 624.37,215.34 625.86,217.02 627.35,218.71 628.82,220.41 630.27,222.12 631.72,223.85 633.15,225.59 634.56,227.33 635.96,229.09 637.35,230.86 638.72,232.64 640.08,234.43 641.42,236.24 642.75,238.05 644.07,239.87 645.37,241.7 646.65,243.55 647.92,245.4 649.17,247.26 650.41,249.14 651.64,251.02 652.85,252.91 654.04,254.81 655.22,256.73 656.38,258.65 657.53,260.58 658.66,262.52 659.77,264.46 660.87,266.42 661.95,268.39 663.02,270.36 664.07,272.34 665.1,274.33 666.12,276.33 667.12,278.34 668.1,280.36 669.07,282.38 670.02,284.41 670.95,286.45 671.86,288.49 672.76,290.55 673.64,292.61 674.51,294.68 675.35,296.75 676.18,298.83 676.99,300.92 677.78,303.01 678.56,305.12 679.32,307.22 680.06,309.34 680.78,311.46 681.48,313.58 682.16,315.71 682.83,317.85 683.48,319.99 684.11,322.14 684.72,324.29 685.31,326.44 685.89,328.6 686.44,330.77 686.98,332.94 687.5,335.12 688,337.3 688.48,339.48 688.94,341.66 689.38,343.86 689.8,346.05 690.21,348.25 690.59,350.45 690.95,352.65 691.3,354.86 691.62,357.06 691.93,359.28 692.22,361.49 692.48,363.71 692.73,365.92 692.96,368.14 693.16,370.36 693.35,372.59 693.52,374.81 693.67,377.04 693.8,379.26 693.9,381.49 693.99,383.72 694.06,385.94 694.11,388.17 694.13,390.4 694.14,392.63 694.13,394.85 694.09,397.08 694.04,399.31 693.96,401.53 693.87,403.76 693.75,405.98 693.62,408.2 693.46,410.42 693.28,412.64 693.09,414.85 692.87,417.07 692.63,419.28 692.37,421.49 692.09,423.69 691.79,425.89 691.47,428.09 691.13,430.29 690.77,432.48 690.38,434.67 689.98,436.85 689.55,439.03 689.11,441.21 688.64,443.38 688.16,445.54 687.65,447.7 687.12,449.86 686.58,452.01 686.01,454.15 685.42,456.29 684.81,458.42 684.18,460.55 683.53,462.67 682.86,464.78 682.17,466.88 681.45,468.98 680.72,471.07 679.97,473.15 679.19,475.23 678.4,477.29 677.59,479.35 676.75,481.4 675.9,483.44 675.02,485.47 674.13,487.5 673.21,489.51 672.28,491.51 671.33,493.51 670.35,495.49 669.36,497.46 668.34,499.43 667.31,501.38 666.26,503.32 665.18,505.25 664.09,507.16 662.98,509.07 661.85,510.96 660.7,512.85 659.53,514.72 658.34,516.57 657.13,518.42 655.9,520.25 654.66,522.06 653.39,523.87 652.11,525.66 650.81,527.44 649.49,529.2 648.15,530.94 646.8,532.68 645.42,534.39 644.03,536.1 642.62,537.78 641.19,539.46 639.75,541.11 638.29,542.75 636.81,544.37 635.31,545.98 633.79,547.57 632.26,549.14 630.72,550.7 629.15,552.24 627.57,553.76 625.97,555.26 624.36,556.74 622.73,558.21 621.09,559.66 619.42,561.09 617.75,562.5 616.06,563.89 614.35,565.26 612.63,566.61 610.89,567.94 609.14,569.25 607.38,570.54 605.6,571.81 603.81,573.05 602,574.28 600.18,575.49 598.34,576.67 596.5,577.84 594.64,578.98 592.77,580.09 590.88,581.19 588.98,582.26 587.08,583.31 585.15,584.34 583.22,585.35 581.28,586.33 579.33,587.28 577.36,588.22 575.39,589.13 573.4,590.01 571.4,590.87 569.4,591.71 567.38,592.52 565.36,593.31 563.33,594.07 561.29,594.8 559.24,595.51 557.18,596.2 555.12,596.85 553.05,597.48 550.97,598.09 548.88,598.67 546.79,599.22 544.69,599.75 542.59,600.24 540.48,600.72 538.36,601.16 536.25,601.57 534.12,601.96 532,602.32 529.86,602.66 527.73,602.96 525.59,603.24 523.45,603.48 521.31,603.7 519.17,603.89 517.03,604.06 514.88,604.19 512.73,604.29 510.59,604.37 508.44,604.41 506.3,604.43 504.15,604.41 502.01,604.37 499.87,604.3 497.73,604.19 495.59,604.06 493.46,603.9 491.33,603.71 489.21,603.49 487.09,603.23 484.97,602.95 482.86,602.64 480.76,602.29 478.66,601.92 476.57,601.52 474.49,601.08 472.41,600.62 470.34,600.12 468.28,599.6 466.24,599.04 464.2,598.46 462.17,597.84 460.15,597.19 458.15,596.52 456.15,595.81 454.17,595.07 452.2,594.31 450.25,593.51 448.31,592.68 446.38,591.82 444.47,590.94 442.57,590.02 440.7,589.07 438.83,588.1 436.99,587.09 435.17,586.06 433.36,585 431.57,583.9 429.8,582.78 428.06,581.64 426.33,580.46 424.63,579.25 422.94,578.02 421.29,576.76 419.65,575.47 418.04,574.16 416.45,572.82 414.89,571.45 413.36,570.06 411.85,568.64 410.37,567.2 408.92,565.73 407.49,564.23 406.1,562.72 404.73,561.17 403.4,559.61 402.1,558.02 400.83,556.41 399.59,554.78 398.38,553.13 397.21,551.45 396.07,549.76 394.97,548.04 393.91,546.31 392.88,544.56 391.89,542.79 390.93,541 390.02,539.2 389.14,537.38 388.3,535.55 387.5,533.7 386.75,531.84 386.03,529.97 385.36,528.09 384.73,526.19 384.15,524.29 383.6,522.37 383.11,520.45 382.65,518.51"/>
<circle cx="450" cy="101.7" r="7" fill="#4a6"/>
<circle cx="365.3" cy="522.4" r="9" fill="#c33"/>
<text class="txt" x="16" y="24">⑥ 洞穴　轨道长 1108.8 设计单位</text>
<text class="txt" x="16" y="44">两轨中心距 41.44　球距 39.5　大球 R=19　小球 r=13.44</text>
<text class="txt" x="16" y="64">绿点 = 出球口　红点 = 降解洞穴　虚线 = 两条轨的中心线（骨架）</text>
</svg>